<svg width="564" height="96" viewBox="0 0 564 96" fill="none" xmlns="http://www.w3.org/2000/svg">
<path d="M492 84V72H480V36H492V24H552V36H564V60H504V72H552V84H492ZM504 48H540V36H504V48Z" fill="#6776FF"/>
<path d="M396 84V72H420V12H408V0H444V72H468V84H396Z" fill="#6776FF"/>
<path d="M300 84V72H324V12H312V0H348V72H372V84H300Z" fill="#6776FF"/>
<path d="M204 96V84H252V72H204V60H192V24H216V60H252V24H276V84H264V96H204Z" fill="#6776FF"/>
<path d="M132 36H144V48H132V84H108V24H132V36ZM180 24V36H144V24H180Z" fill="#6776FF"/>
<path d="M0 84V0H72V12H84V36H72V48H84V72H72V84H0ZM24 36H60V12H24V36ZM24 72H60V48H24V72Z" fill="#6776FF"/>
</svg>
